<svg width="257" height="31" viewBox="0 0 257 31" fill="none" xmlns="http://www.w3.org/2000/svg">
<line y1="15" x2="97" y2="15" stroke="#CEE2E9"/>
<path d="M126.673 4.09812C127.378 2.51714 129.622 2.51714 130.327 4.09812L132.312 8.5527C132.603 9.20477 133.219 9.65246 133.929 9.72739L138.779 10.2393C140.501 10.421 141.194 12.5552 139.908 13.714L136.285 16.9789C135.755 17.4569 135.52 18.1813 135.668 18.8796L136.68 23.6506C137.039 25.3438 135.223 26.6629 133.724 25.798L129.499 23.3613C128.881 23.0046 128.119 23.0046 127.501 23.3613L123.276 25.798C121.777 26.6629 119.961 25.3438 120.32 23.6506L121.332 18.8796C121.48 18.1813 121.245 17.4569 120.715 16.9789L117.092 13.714C115.806 12.5552 116.499 10.421 118.221 10.2393L123.071 9.72739C123.781 9.65246 124.397 9.20477 124.688 8.5527L126.673 4.09812Z" fill="#CEE2E9"/>
<line x1="160" y1="15" x2="257" y2="15" stroke="#CEE2E9"/>
</svg>
